<svg width="18" height="18" viewBox="0 0 18 18" fill="none" xmlns="http://www.w3.org/2000/svg">
<rect width="18" height="18" rx="4" fill="#FFD668"/>
<path d="M14.1293 13.7509L13.4517 12.6217C13.3677 12.4825 13.2492 12.3672 13.1077 12.287C12.9662 12.2069 12.8064 12.1645 12.6438 12.1641H10.3657L10.6026 11.0583C11.0325 10.9627 11.4208 10.7324 11.711 10.401C11.7717 10.3314 11.8277 10.2577 11.8785 10.1804L12.2586 9.92697C12.6346 9.67688 12.9428 9.33766 13.1558 8.93955C13.3689 8.54144 13.4801 8.0968 13.4796 7.64527V7.40032C13.4813 6.89067 13.3402 6.39073 13.0722 5.95722C12.8043 5.52371 12.4202 5.17397 11.9635 4.94767C11.901 4.91631 11.8509 4.86478 11.8213 4.80141C11.7917 4.73804 11.7844 4.66654 11.8005 4.59849C11.8166 4.53044 11.8552 4.46981 11.9101 4.42642C11.9649 4.38303 12.0328 4.35941 12.1027 4.3594H12.71C12.8486 4.35938 12.9822 4.30782 13.085 4.21476C13.1877 4.12169 13.2522 3.99376 13.2658 3.85582C13.2795 3.71787 13.2414 3.57977 13.159 3.46835C13.0765 3.35692 12.9556 3.28013 12.8196 3.2529L12.107 3.11052L11.9487 2.95213C11.8149 2.81832 11.6445 2.7272 11.4589 2.69027C11.2733 2.65334 11.081 2.67228 10.9061 2.74468C10.7313 2.81708 10.5819 2.93969 10.4768 3.09701C10.3717 3.25433 10.3156 3.43929 10.3156 3.6285V4.46012C10.3145 4.7862 10.4048 5.10605 10.5763 5.38342C10.7477 5.66079 10.9934 5.88459 11.2856 6.02944C11.5012 6.13728 11.6825 6.30304 11.8093 6.50815C11.936 6.71325 12.0031 6.9496 12.0031 7.1907C12.0031 7.22659 12.0016 7.26158 11.9987 7.29567C11.9856 7.46125 11.9406 7.62273 11.8662 7.7712C11.8596 7.78438 11.8521 7.79704 11.8451 7.80996C11.6516 7.52671 11.392 7.29494 11.0887 7.13474C10.7854 6.97454 10.4476 6.89075 10.1046 6.89064H5.88588C5.43849 6.89114 5.00956 7.06909 4.6932 7.38545C4.37684 7.70181 4.19889 8.13074 4.19839 8.57814C4.19872 8.74192 4.264 8.8989 4.37991 9.01461C4.49583 9.13033 4.65291 9.19534 4.8167 9.19539C4.95629 9.1955 5.09167 9.14751 5.20002 9.0595L5.363 8.92911C5.41991 9.01128 5.49588 9.07843 5.58442 9.12481C5.67297 9.17119 5.77143 9.19542 5.87138 9.19542C6.01098 9.19553 6.14635 9.14754 6.25471 9.05952L6.45394 8.90013L6.51722 9.01638C6.74983 9.44449 7.05906 9.82626 7.42952 10.1427L6.3901 10.9422C6.35362 10.9703 6.32732 11.0095 6.31522 11.0539L5.70316 13.298L4.6051 14.03L4.51619 13.9856C4.39774 13.9263 4.26206 13.9111 4.13343 13.9427C4.0048 13.9743 3.89164 14.0507 3.8142 14.1582C3.73676 14.2657 3.70011 14.3972 3.71081 14.5292C3.7215 14.6612 3.77884 14.7851 3.87257 14.8787L4.09194 15.0981C4.16468 15.1713 4.25121 15.2293 4.34651 15.2687C4.44181 15.3082 4.544 15.3284 4.64716 15.3281C4.72843 15.328 4.8092 15.3154 4.88662 15.2907C4.96422 15.266 5.03744 15.2292 5.10362 15.1817L6.47044 14.2046C6.66517 14.066 6.81306 13.8713 6.8944 13.6466L7.53003 11.8984L8.839 11.3168V13.2188C8.839 13.2747 8.86123 13.3283 8.90078 13.3679C8.94034 13.4075 8.994 13.4297 9.04994 13.4297H12.5165L13.0282 14.2826L12.99 14.3588C12.9309 14.477 12.9134 14.6118 12.9405 14.7412C12.9675 14.8707 13.0375 14.9872 13.139 15.0718C13.2405 15.1565 13.3677 15.2044 13.4999 15.2078C13.6321 15.2112 13.7615 15.1698 13.8672 15.0904C14.0689 14.9391 14.2073 14.7185 14.2557 14.4711C14.3041 14.2237 14.2591 13.9671 14.1294 13.751L14.1293 13.7509ZM12.8159 3.71409C12.8323 3.73413 12.8427 3.75842 12.8458 3.78413C12.849 3.80984 12.8447 3.83592 12.8336 3.85933C12.8225 3.88274 12.805 3.90251 12.7831 3.91636C12.7612 3.9302 12.7359 3.93754 12.71 3.93752H12.214V3.56203L12.7366 3.66655C12.7678 3.67266 12.7958 3.68948 12.8159 3.71409ZM11.4741 5.65207C11.2522 5.54204 11.0656 5.37205 10.9354 5.16138C10.8052 4.95071 10.7366 4.70778 10.7374 4.46012V3.6285C10.7374 3.52274 10.7688 3.41935 10.8276 3.33142C10.8863 3.24349 10.9699 3.17495 11.0676 3.13447C11.1653 3.094 11.2728 3.0834 11.3765 3.10403C11.4803 3.12465 11.5755 3.17557 11.6503 3.25034L11.7921 3.39209V4.00684C11.6674 4.06515 11.5617 4.15742 11.4871 4.27306C11.4125 4.38871 11.3719 4.52304 11.3701 4.66067C11.3684 4.79829 11.4054 4.93363 11.477 5.05117C11.5486 5.16871 11.6519 5.26368 11.7751 5.3252C12.1159 5.49407 12.4096 5.74465 12.63 6.0546C12.8505 6.36455 12.9908 6.72423 13.0385 7.10158H12.4223C12.4067 6.79765 12.3107 6.50332 12.1441 6.24865C11.9775 5.99398 11.7462 5.7881 11.474 5.65204L11.4741 5.65207ZM12.2433 7.96017C12.3125 7.82201 12.3626 7.67509 12.3922 7.52345H13.0577V7.64527C13.0581 7.99654 12.9785 8.34328 12.825 8.65924C12.6715 8.9752 12.4482 9.25208 12.1718 9.46892C12.1998 9.33338 12.2139 9.19536 12.214 9.05696V9.00001C12.2141 8.73872 12.1654 8.47971 12.0703 8.23631C12.1366 8.14992 12.1945 8.05745 12.2433 7.96014V7.96017ZM11.7921 9.00001V9.05702C11.7924 9.86962 11.2045 10.5474 10.3947 10.6687C10.3108 10.681 10.2261 10.6872 10.1413 10.6871H10.0419C9.98175 10.6871 9.9216 10.6856 9.86147 10.6825C10.0206 10.5293 10.1219 10.3258 10.1482 10.1064C10.1745 9.8871 10.1242 9.6654 10.0057 9.47892L10.0282 9.46397C10.2908 9.28925 10.5184 9.06694 10.6993 8.80851L10.3539 8.56638C10.2031 8.78186 10.0133 8.96721 9.79428 9.11289L9.13671 9.55108C9.12964 9.5558 9.12287 9.56093 9.11641 9.56646C9.0649 9.61064 8.99889 9.63425 8.93105 9.63276C8.8632 9.63127 8.79829 9.60478 8.74877 9.55838C8.69925 9.51198 8.6686 9.44893 8.6627 9.38133C8.65681 9.31372 8.67608 9.24632 8.71682 9.19204L8.97471 8.84819C9.00321 8.81018 9.01804 8.76365 9.01681 8.71616C9.01557 8.66867 8.99833 8.62298 8.96789 8.5865C8.93745 8.55003 8.89558 8.5249 8.84908 8.51518C8.80257 8.50546 8.75415 8.51173 8.71165 8.53297L8.19717 8.79021C8.1507 8.81349 8.09807 8.82154 8.04676 8.81321C7.99545 8.80487 7.94808 8.78059 7.91135 8.7438C7.88627 8.71872 7.86688 8.68853 7.85448 8.6553C7.84207 8.62207 7.83696 8.58656 7.83947 8.55117C7.84199 8.51579 7.85208 8.48136 7.86905 8.45022C7.88603 8.41907 7.9095 8.39194 7.93788 8.37065L8.32498 8.08033C8.36323 8.05163 8.3906 8.01078 8.4026 7.96448C8.41459 7.91818 8.4105 7.86918 8.39098 7.82552C8.37147 7.78186 8.3377 7.74612 8.29521 7.72417C8.25271 7.70222 8.20402 7.69537 8.15712 7.70473L7.6003 7.81589C7.56552 7.8228 7.52967 7.82236 7.49507 7.81459C7.46046 7.80682 7.42787 7.79189 7.39938 7.77077C7.37089 7.74964 7.34714 7.72279 7.32966 7.69193C7.31217 7.66108 7.30134 7.6269 7.29785 7.59161C7.29437 7.55632 7.29831 7.52068 7.30942 7.48701C7.32054 7.45333 7.33858 7.42235 7.36238 7.39606C7.38619 7.36977 7.41523 7.34876 7.44765 7.33437C7.48007 7.31998 7.51513 7.31254 7.5506 7.31251H10.1046C10.552 7.31302 10.981 7.49097 11.2973 7.80733C11.6137 8.12368 11.7916 8.55261 11.7921 9.00001ZM6.88768 8.81444L6.7039 8.4772C6.68915 8.45013 6.66864 8.42662 6.64382 8.40833C6.61901 8.39004 6.59048 8.37741 6.56026 8.37133C6.53003 8.36525 6.49884 8.36587 6.46889 8.37315C6.43893 8.38043 6.41093 8.39418 6.38686 8.41345L5.99093 8.73028C5.95734 8.75818 5.91505 8.77347 5.87138 8.77352C5.84559 8.77384 5.81999 8.76901 5.79608 8.75932C5.77217 8.74962 5.75043 8.73526 5.73214 8.71707C5.71385 8.69888 5.69937 8.67722 5.68955 8.65336C5.67973 8.62951 5.67477 8.60393 5.67495 8.57814C5.67495 8.53839 5.66373 8.49946 5.64257 8.46582C5.62141 8.43217 5.59118 8.40519 5.55536 8.38798C5.51954 8.37077 5.47958 8.36403 5.44009 8.36853C5.40061 8.37304 5.3632 8.38861 5.33217 8.41345L4.93625 8.73028C4.90265 8.75818 4.86037 8.77347 4.8167 8.77352C4.7909 8.77384 4.7653 8.76901 4.74139 8.75932C4.71748 8.74962 4.69575 8.73526 4.67746 8.71707C4.65917 8.69888 4.64469 8.67722 4.63487 8.65336C4.62505 8.62951 4.62008 8.60393 4.62026 8.57814C4.62065 8.24259 4.75411 7.9209 4.99138 7.68363C5.22864 7.44636 5.55034 7.3129 5.88588 7.31251H6.9243C6.88415 7.41138 6.86798 7.51834 6.87711 7.62466C6.88623 7.73097 6.9204 7.83362 6.97681 7.92419C7.03322 8.01477 7.11027 8.0907 7.20166 8.14579C7.29304 8.20087 7.39617 8.23354 7.50261 8.24111C7.43839 8.35555 7.40921 8.48634 7.41871 8.61722C7.4282 8.74811 7.47594 8.87332 7.556 8.97729C7.63605 9.08127 7.7449 9.15943 7.86901 9.20207C7.99312 9.2447 8.12702 9.24992 8.25407 9.21709C8.23454 9.31274 8.23534 9.41142 8.25642 9.50673L7.77224 9.87917C7.4106 9.58551 7.11007 9.22377 6.88768 8.81444ZM7.27678 11.5494C7.25087 11.561 7.22755 11.5776 7.20821 11.5983C7.18886 11.619 7.17389 11.6435 7.16419 11.6701L6.49786 13.5026C6.44554 13.6472 6.35041 13.7723 6.22515 13.8615L4.85804 14.8387C4.82773 14.8605 4.79419 14.8774 4.75864 14.8888C4.72259 14.9003 4.68499 14.9062 4.64716 14.9062C4.59942 14.9064 4.55214 14.897 4.50805 14.8788C4.46395 14.8605 4.42392 14.8337 4.39026 14.7998L4.17089 14.5804C4.14817 14.5576 4.13429 14.5275 4.13174 14.4954C4.12919 14.4633 4.13812 14.4313 4.15695 14.4052C4.17578 14.3791 4.20327 14.3605 4.23453 14.3528C4.26578 14.3451 4.29877 14.3487 4.32759 14.3631L4.52587 14.4622C4.55913 14.4788 4.5962 14.4864 4.63332 14.4841C4.67044 14.4817 4.70629 14.4697 4.73723 14.449L6.00285 13.6053C6.04523 13.577 6.07595 13.5344 6.08933 13.4852L6.70348 11.2335L8.4696 9.87503C8.59361 9.98726 8.75385 10.0511 8.92106 10.055C9.08827 10.0588 9.25127 10.0023 9.38029 9.89591L9.65401 9.71351C9.7223 9.82482 9.74756 9.95726 9.72503 10.0859C9.7025 10.2145 9.63373 10.3305 9.53167 10.412C9.27853 10.6144 9.00045 10.7836 8.70424 10.9152L7.27678 11.5494ZM13.6139 14.753C13.5842 14.7753 13.5478 14.7869 13.5107 14.786C13.4735 14.785 13.4378 14.7715 13.4093 14.7477C13.3808 14.7239 13.3611 14.6912 13.3535 14.6548C13.3459 14.6185 13.3508 14.5806 13.3674 14.5474L13.4573 14.3678C13.4732 14.3361 13.4808 14.3008 13.4795 14.2653C13.4781 14.2298 13.4678 14.1952 13.4496 14.1648L12.8167 13.1101C12.798 13.0789 12.7715 13.0531 12.7398 13.0351C12.7081 13.0172 12.6723 13.0078 12.6359 13.0078H9.26088V11.1047C9.29223 11.0867 9.32352 11.0685 9.35443 11.0497C9.58145 11.0892 9.81144 11.1091 10.0419 11.1091H10.1413C10.1476 11.1091 10.1539 11.1088 10.1602 11.1088L9.89838 12.3308C9.89179 12.3616 9.89216 12.3934 9.89947 12.424C9.90677 12.4546 9.92082 12.4832 9.9406 12.5076C9.96037 12.5321 9.98536 12.5518 10.0137 12.5654C10.0421 12.5789 10.0732 12.5859 10.1046 12.5859H12.6438C12.7336 12.5862 12.8218 12.6096 12.9 12.6539C12.9781 12.6981 13.0435 12.7618 13.0899 12.8387L13.7676 13.9679C13.8436 14.0946 13.87 14.245 13.8417 14.39C13.8133 14.535 13.7322 14.6643 13.614 14.753L13.6139 14.753Z" fill="#1F1F1F"/>
<path d="M11.5812 3.51562H11.1593V3.9375H11.5812V3.51562Z" fill="#1F1F1F"/>
</svg>
