<svg width="146" height="40" viewBox="0 0 146 40" fill="none" xmlns="http://www.w3.org/2000/svg">
<g clip-path="url(#clip0)">
<path d="M46.8928 30.3C44.6965 30.3 42.9994 29.68 41.8015 28.44C40.6235 27.2 39.9946 25.55 39.9147 23.49L39.8848 22.2L39.9147 20.91C39.9946 18.85 40.6335 17.2 41.8314 15.96C43.0493 14.72 44.7365 14.1 46.8928 14.1C49.0491 14.1 50.7262 14.72 51.9241 15.96C53.1421 17.2 53.791 18.85 53.8708 20.91C53.9107 21.35 53.9307 21.78 53.9307 22.2C53.9307 22.62 53.9107 23.05 53.8708 23.49C53.791 25.55 53.152 27.2 51.9541 28.44C50.7761 29.68 49.089 30.3 46.8928 30.3ZM46.8928 28.05C48.1706 28.05 49.1789 27.65 49.9176 26.85C50.6763 26.03 51.0856 24.86 51.1455 23.34C51.1654 23.14 51.1754 22.76 51.1754 22.2C51.1754 21.64 51.1654 21.26 51.1455 21.06C51.0856 19.54 50.6763 18.38 49.9176 17.58C49.1789 16.76 48.1706 16.35 46.8928 16.35C45.615 16.35 44.5967 16.76 43.838 17.58C43.0993 18.38 42.6999 19.54 42.64 21.06L42.6101 22.2L42.64 23.34C42.6999 24.86 43.0993 26.03 43.838 26.85C44.5967 27.65 45.615 28.05 46.8928 28.05ZM57.1532 30C56.9535 30 56.7838 29.94 56.6441 29.82C56.5243 29.68 56.4644 29.51 56.4644 29.31V15.12C56.4644 14.92 56.5243 14.75 56.6441 14.61C56.7838 14.47 56.9535 14.4 57.1532 14.4H58.411C58.6307 14.4 58.8004 14.47 58.9202 14.61C59.0599 14.73 59.1298 14.9 59.1298 15.12V16.44C59.9484 15.08 61.336 14.4 63.2927 14.4H64.4607C64.6803 14.4 64.85 14.46 64.9698 14.58C65.0896 14.7 65.1495 14.87 65.1495 15.09V16.2C65.1495 16.4 65.0896 16.57 64.9698 16.71C64.85 16.83 64.6803 16.89 64.4607 16.89H62.7536C61.6555 16.89 60.787 17.21 60.1481 17.85C59.5291 18.49 59.2197 19.36 59.2197 20.46V29.31C59.2197 29.51 59.1498 29.68 59.01 29.82C58.8703 29.94 58.7005 30 58.5009 30H57.1532ZM71.845 30.3C69.7486 30.3 68.1713 29.62 67.1131 28.26C66.0749 26.9 65.5159 25.18 65.436 23.1L65.4061 22.2L65.436 21.3C65.5159 19.24 66.0849 17.53 67.1431 16.17C68.2013 14.79 69.7686 14.1 71.845 14.1C73.9215 14.1 75.5387 14.84 76.6967 16.32V9.38999C76.6967 9.18999 76.7566 9.02999 76.8764 8.90999C77.0162 8.76999 77.1859 8.69999 77.3855 8.69999H78.7332C78.9329 8.69999 79.0926 8.76999 79.2124 8.90999C79.3522 9.02999 79.4221 9.18999 79.4221 9.38999V29.31C79.4221 29.51 79.3522 29.68 79.2124 29.82C79.0926 29.94 78.9329 30 78.7332 30H77.4454C77.2458 30 77.0861 29.94 76.9663 29.82C76.8465 29.68 76.7866 29.51 76.7866 29.31V28.02C75.6485 29.54 74.0013 30.3 71.845 30.3ZM72.4141 27.96C73.8117 27.96 74.8599 27.5 75.5587 26.58C76.2575 25.64 76.6368 24.53 76.6967 23.25C76.7167 23.03 76.7267 22.65 76.7267 22.11C76.7267 21.55 76.7167 21.16 76.6967 20.94C76.6568 19.72 76.2675 18.67 75.5287 17.79C74.81 16.89 73.7717 16.44 72.4141 16.44C70.9765 16.44 69.9283 16.89 69.2694 17.79C68.6106 18.69 68.2512 19.87 68.1913 21.33L68.1613 22.2C68.1613 26.04 69.5789 27.96 72.4141 27.96ZM88.8584 30.3C86.8219 30.3 85.1947 29.67 83.9768 28.41C82.7589 27.13 82.09 25.39 81.9702 23.19L81.9403 22.17L81.9702 21.18C82.09 19.02 82.7589 17.3 83.9768 16.02C85.1947 14.74 86.8219 14.1 88.8584 14.1C91.0546 14.1 92.7517 14.8 93.9497 16.2C95.1676 17.6 95.7766 19.5 95.7766 21.9V22.44C95.7766 22.64 95.7067 22.81 95.5669 22.95C95.4471 23.07 95.2874 23.13 95.0877 23.13H84.6955V23.4C84.7554 24.7 85.1547 25.81 85.8935 26.73C86.6322 27.65 87.6105 28.11 88.8284 28.11C89.7668 28.11 90.5256 27.93 91.1046 27.57C91.7035 27.19 92.1528 26.8 92.4523 26.4C92.6319 26.16 92.7717 26.02 92.8715 25.98C92.9714 25.92 93.1411 25.89 93.3807 25.89H94.6984C94.8781 25.89 95.0278 25.94 95.1476 26.04C95.2874 26.14 95.3573 26.27 95.3573 26.43C95.3573 26.87 95.0877 27.4 94.5487 28.02C94.0096 28.64 93.2409 29.18 92.2426 29.64C91.2643 30.08 90.1362 30.3 88.8584 30.3ZM93.0512 21.09V21C93.0512 19.6 92.6719 18.46 91.9132 17.58C91.1545 16.7 90.1362 16.26 88.8584 16.26C87.5606 16.26 86.5424 16.7 85.8036 17.58C85.0649 18.46 84.6955 19.6 84.6955 21V21.09H93.0512ZM98.8592 30C98.6595 30 98.4898 29.94 98.35 29.82C98.2302 29.68 98.1703 29.51 98.1703 29.31V15.12C98.1703 14.92 98.2302 14.75 98.35 14.61C98.4898 14.47 98.6595 14.4 98.8592 14.4H100.117C100.337 14.4 100.506 14.47 100.626 14.61C100.766 14.73 100.836 14.9 100.836 15.12V16.44C101.654 15.08 103.042 14.4 104.999 14.4H106.167C106.386 14.4 106.556 14.46 106.676 14.58C106.796 14.7 106.855 14.87 106.855 15.09V16.2C106.855 16.4 106.796 16.57 106.676 16.71C106.556 16.83 106.386 16.89 106.167 16.89H104.46C103.361 16.89 102.493 17.21 101.854 17.85C101.235 18.49 100.926 19.36 100.926 20.46V29.31C100.926 29.51 100.856 29.68 100.716 29.82C100.576 29.94 100.407 30 100.207 30H98.8592ZM108.632 11.46C108.432 11.46 108.262 11.4 108.123 11.28C108.003 11.14 107.943 10.97 107.943 10.77V9.20999C107.943 9.00999 108.003 8.83999 108.123 8.69999C108.262 8.55999 108.432 8.48999 108.632 8.48999H110.399C110.598 8.48999 110.768 8.55999 110.908 8.69999C111.048 8.83999 111.117 9.00999 111.117 9.20999V10.77C111.117 10.97 111.048 11.14 110.908 11.28C110.768 11.4 110.598 11.46 110.399 11.46H108.632ZM108.871 30C108.672 30 108.502 29.94 108.362 29.82C108.242 29.68 108.182 29.51 108.182 29.31V15.09C108.182 14.89 108.242 14.73 108.362 14.61C108.502 14.47 108.672 14.4 108.871 14.4H110.189C110.389 14.4 110.548 14.47 110.668 14.61C110.808 14.73 110.878 14.89 110.878 15.09V29.31C110.878 29.51 110.808 29.68 110.668 29.82C110.548 29.94 110.389 30 110.189 30H108.871ZM120.359 30.3C118.222 30.3 116.555 29.7 115.357 28.5C114.159 27.28 113.53 25.58 113.47 23.4L113.44 22.2L113.47 21C113.53 18.82 114.159 17.13 115.357 15.93C116.555 14.71 118.222 14.1 120.359 14.1C121.796 14.1 123.004 14.36 123.982 14.88C124.981 15.38 125.72 16.01 126.199 16.77C126.698 17.53 126.968 18.29 127.008 19.05C127.028 19.23 126.958 19.39 126.798 19.53C126.658 19.67 126.499 19.74 126.319 19.74H125.001C124.802 19.74 124.651 19.7 124.551 19.62C124.452 19.52 124.352 19.35 124.252 19.11C123.893 18.13 123.393 17.44 122.754 17.04C122.136 16.62 121.347 16.41 120.389 16.41C119.131 16.41 118.132 16.8 117.394 17.58C116.655 18.36 116.256 19.55 116.196 21.15L116.166 22.2L116.196 23.25C116.256 24.85 116.655 26.04 117.394 26.82C118.132 27.6 119.131 27.99 120.389 27.99C121.367 27.99 122.165 27.79 122.784 27.39C123.403 26.97 123.893 26.27 124.252 25.29C124.352 25.05 124.452 24.89 124.551 24.81C124.651 24.71 124.802 24.66 125.001 24.66H126.319C126.499 24.66 126.658 24.73 126.798 24.87C126.958 25.01 127.028 25.17 127.008 25.35C126.968 26.09 126.698 26.84 126.199 27.6C125.72 28.36 124.981 29 123.982 29.52C123.004 30.04 121.796 30.3 120.359 30.3ZM130.066 30C129.867 30 129.697 29.94 129.557 29.82C129.437 29.68 129.378 29.51 129.378 29.31V9.38999C129.378 9.16999 129.437 8.99999 129.557 8.87999C129.697 8.75999 129.867 8.69999 130.066 8.69999H131.444C131.664 8.69999 131.833 8.75999 131.953 8.87999C132.073 8.99999 132.133 9.16999 132.133 9.38999V16.38C132.712 15.64 133.391 15.08 134.169 14.7C134.968 14.3 135.946 14.1 137.104 14.1C139.021 14.1 140.508 14.72 141.567 15.96C142.645 17.18 143.184 18.8 143.184 20.82V29.31C143.184 29.51 143.114 29.68 142.974 29.82C142.854 29.94 142.695 30 142.495 30H141.087C140.888 30 140.718 29.94 140.578 29.82C140.459 29.68 140.399 29.51 140.399 29.31V21C140.399 19.56 140.049 18.44 139.35 17.64C138.652 16.84 137.643 16.44 136.326 16.44C135.048 16.44 134.03 16.85 133.271 17.67C132.512 18.47 132.133 19.58 132.133 21V29.31C132.133 29.51 132.063 29.68 131.923 29.82C131.803 29.94 131.644 30 131.444 30H130.066Z" fill="#222222"/>
<path d="M32.8771 35.0154L30.7391 31.4464C30.4741 31.0063 30.1002 30.642 29.6537 30.3886C29.2074 30.1353 28.7032 30.0015 28.1901 30H21.0024L21.7499 26.5054C23.1066 26.2031 24.3316 25.4754 25.247 24.4279C25.4388 24.2077 25.6153 23.9748 25.7755 23.7308L26.9748 22.9297C28.161 22.1392 29.1335 21.0671 29.8057 19.809C30.4778 18.5508 30.8288 17.1455 30.8272 15.7184V14.9443C30.8327 13.3335 30.3875 11.7534 29.5419 10.3833C28.6965 9.0132 27.4846 7.90785 26.0438 7.19265C25.8466 7.09352 25.6885 6.93065 25.5952 6.73038C25.5018 6.5301 25.4787 6.30414 25.5295 6.08906C25.5803 5.87398 25.7021 5.68236 25.8752 5.54523C26.0481 5.40809 26.2624 5.33346 26.483 5.3334H28.3989C28.8362 5.33334 29.258 5.17041 29.5821 4.87628C29.9063 4.58214 30.1096 4.1778 30.1527 3.74184C30.1959 3.30588 30.0758 2.8694 29.8156 2.51725C29.5554 2.1651 29.1738 1.9224 28.745 1.83632L26.4966 1.38633L25.997 0.885743C25.575 0.462854 25.0371 0.174844 24.4516 0.0581381C23.8661 -0.0585681 23.2593 0.00127118 22.7077 0.230088C22.1562 0.458905 21.6847 0.846421 21.3531 1.34363C21.0214 1.84084 20.8443 2.42541 20.8443 3.0234V5.65174C20.8411 6.6823 21.1259 7.69319 21.6669 8.56983C22.2077 9.44645 22.983 10.1538 23.9048 10.6115C24.5852 10.9524 25.1573 11.4763 25.5571 12.1245C25.9569 12.7727 26.1687 13.5197 26.1686 14.2817C26.1686 14.3951 26.1639 14.5057 26.1548 14.6135C26.1137 15.1367 25.9717 15.6471 25.7367 16.1164C25.7158 16.158 25.6923 16.198 25.67 16.2389C25.0597 15.3438 24.2406 14.6111 23.2836 14.1049C22.3268 13.5985 21.261 13.3338 20.1788 13.3334H6.86831C5.45673 13.335 4.10342 13.8974 3.10528 14.8973C2.10714 15.8971 1.54569 17.2528 1.54411 18.6667C1.54514 19.1844 1.75111 19.6805 2.11684 20.0461C2.48256 20.4119 2.97816 20.6174 3.49493 20.6175C3.93537 20.6179 4.36249 20.4662 4.70436 20.188L5.21856 19.776C5.39811 20.0356 5.63783 20.2479 5.91718 20.3945C6.19654 20.541 6.5072 20.6176 6.82256 20.6176C7.263 20.618 7.69012 20.4662 8.03198 20.1881L8.66058 19.6844L8.86023 20.0518C9.59416 21.4048 10.5698 22.6114 11.7386 23.6115L8.45918 26.1384C8.34406 26.2271 8.26109 26.3511 8.22291 26.4914L6.2918 33.5838L2.82733 35.8974L2.54681 35.7569C2.17309 35.5695 1.74499 35.5215 1.33917 35.6214C0.933341 35.7214 0.576297 35.9629 0.331973 36.3025C0.0876497 36.6421 -0.0279959 37.0578 0.00574617 37.475C0.0394883 37.8924 0.220414 38.2839 0.516124 38.5798L1.20827 39.2731C1.43778 39.5042 1.71077 39.6875 2.01146 39.8122C2.31214 39.9371 2.63455 40.0009 2.96002 40C3.21643 39.9997 3.47128 39.9599 3.71555 39.8817C3.96037 39.8036 4.19141 39.6874 4.40022 39.5374L8.71266 36.4491C9.32704 36.011 9.79363 35.3958 10.0503 34.6854L12.0558 29.1604L16.1857 27.3224V33.3334C16.1857 33.5101 16.2558 33.6797 16.3806 33.8047C16.5054 33.9298 16.6747 34 16.8511 34H27.7884L29.4029 36.6956L29.2826 36.9364C29.0959 37.3101 29.0409 37.7361 29.1261 38.1451C29.2115 38.5541 29.4322 38.9224 29.7526 39.19C30.0729 39.4576 30.4741 39.6091 30.8911 39.6198C31.3081 39.6304 31.7166 39.4996 32.0501 39.2487C32.6864 38.7706 33.123 38.0732 33.2759 37.2914C33.4286 36.5094 33.2866 35.6985 32.8775 35.0154H32.8771ZM28.7331 3.2939C28.7848 3.35724 28.8175 3.434 28.8275 3.51526C28.8375 3.59654 28.8241 3.67895 28.7891 3.75294C28.7541 3.82693 28.6989 3.88942 28.6297 3.93317C28.5607 3.97692 28.4806 4.00012 28.3989 4.00007H26.8341V2.81332L28.483 3.14365C28.5813 3.16298 28.6698 3.21613 28.7331 3.2939ZM24.4997 9.41889C23.7996 9.07114 23.2109 8.5339 22.8001 7.86807C22.3893 7.20225 22.1729 6.43446 22.1754 5.65174V3.0234C22.1754 2.68915 22.2745 2.3624 22.4598 2.08449C22.6452 1.80658 22.9088 1.58996 23.217 1.46204C23.5253 1.33413 23.8645 1.30064 24.1918 1.36581C24.5191 1.431 24.8197 1.59193 25.0557 1.82824L25.5031 2.27624V4.21915C25.1096 4.40345 24.7761 4.69506 24.5406 5.06055C24.3051 5.42604 24.1774 5.85061 24.1716 6.28557C24.166 6.72054 24.2829 7.14827 24.5089 7.51975C24.7349 7.89122 25.0607 8.19139 25.4492 8.38581C26.5245 8.91954 27.4512 9.7115 28.1467 10.6911C28.8422 11.6707 29.285 12.8075 29.4356 14H27.4913C27.442 13.0395 27.139 12.1093 26.6134 11.3044C26.0878 10.4995 25.3583 9.84882 24.4994 9.41881L24.4997 9.41889ZM26.9266 16.7136C27.1449 16.277 27.3027 15.8126 27.3962 15.3334H29.4962V15.7184C29.4974 16.8285 29.2463 17.9245 28.762 18.923C28.2777 19.9216 27.5729 20.7968 26.701 21.482C26.7891 21.0536 26.8338 20.6174 26.8341 20.18V20C26.8344 19.1742 26.6806 18.3556 26.3808 17.5864C26.5898 17.3134 26.7727 17.0211 26.9266 16.7135V16.7136ZM25.5031 20V20.1802C25.5038 22.7485 23.649 24.8908 21.0939 25.2739C20.8293 25.3129 20.5622 25.3324 20.2946 25.3323H19.981C19.7911 25.3323 19.6014 25.3274 19.4116 25.3176C19.9138 24.8334 20.2335 24.1901 20.3165 23.4969C20.3993 22.8036 20.2406 22.103 19.8669 21.5136L19.9376 21.4664C20.7663 20.9141 21.4845 20.2115 22.055 19.3948L20.9652 18.6295C20.4894 19.3105 19.8906 19.8964 19.1996 20.3568L17.1249 21.7418C17.1027 21.7566 17.0813 21.7729 17.0609 21.7902C16.8984 21.9299 16.6902 22.0045 16.476 21.9999C16.262 21.9951 16.0573 21.9114 15.901 21.7648C15.7448 21.6181 15.6481 21.4189 15.6295 21.2051C15.6109 20.9915 15.6717 20.7785 15.8002 20.607L16.6138 19.5203C16.7038 19.4 16.7506 19.253 16.7467 19.1029C16.7427 18.9529 16.6884 18.8084 16.5923 18.6931C16.4963 18.5779 16.3642 18.4985 16.2175 18.4678C16.0707 18.437 15.918 18.4569 15.7838 18.524L14.1606 19.337C14.014 19.4105 13.8479 19.436 13.6861 19.4096C13.5242 19.3833 13.3747 19.3065 13.2589 19.1903C13.1797 19.111 13.1185 19.0156 13.0794 18.9106C13.0403 18.8055 13.0241 18.6934 13.0321 18.5815C13.04 18.4696 13.0719 18.3609 13.1254 18.2624C13.1789 18.164 13.2531 18.0783 13.3425 18.011L14.5638 17.0934C14.6846 17.0026 14.771 16.8736 14.8088 16.7272C14.8466 16.5809 14.8337 16.4261 14.7721 16.2881C14.7106 16.1501 14.604 16.0371 14.47 15.9678C14.3358 15.8984 14.1822 15.8768 14.0342 15.9062L12.2775 16.2576C12.1677 16.2795 12.0546 16.2781 11.9454 16.2535C11.8363 16.229 11.7334 16.1817 11.6435 16.115C11.5537 16.0483 11.4787 15.9634 11.4236 15.8659C11.3684 15.7684 11.3342 15.6604 11.3232 15.5487C11.3122 15.4373 11.3246 15.3246 11.3597 15.2182C11.3948 15.1117 11.4517 15.0139 11.5268 14.9307C11.6019 14.8476 11.6936 14.7812 11.7958 14.7358C11.8981 14.6903 12.0088 14.6667 12.1206 14.6667H20.1788C21.5904 14.6683 22.9437 15.2308 23.9419 16.2305C24.94 17.2304 25.5015 18.586 25.5031 20ZM10.0291 19.4135L9.44922 18.3477C9.40269 18.2621 9.33799 18.1879 9.25968 18.13C9.18139 18.0723 9.0914 18.0322 8.99603 18.0131C8.90067 17.9939 8.80227 17.9959 8.70774 18.0189C8.61321 18.0419 8.52488 18.0854 8.44895 18.1462L7.19975 19.1475C7.09375 19.2358 6.96034 19.2841 6.82256 19.2843C6.74117 19.2852 6.6604 19.27 6.58497 19.2394C6.50954 19.2087 6.44096 19.1632 6.38326 19.1058C6.32554 19.0483 6.27986 18.9799 6.24888 18.9045C6.21789 18.8291 6.20222 18.7483 6.20279 18.6667C6.2028 18.5411 6.1674 18.418 6.10064 18.3118C6.03389 18.2054 5.93851 18.1201 5.82549 18.0658C5.71246 18.0114 5.5864 17.99 5.46181 18.0042C5.33722 18.0185 5.2192 18.0678 5.12131 18.1462L3.87212 19.1475C3.76613 19.2358 3.63272 19.2841 3.49493 19.2843C3.41354 19.2852 3.33277 19.27 3.25734 19.2394C3.18191 19.2087 3.11333 19.1632 3.05562 19.1058C2.99792 19.0483 2.95223 18.9799 2.92125 18.9045C2.89026 18.8291 2.87459 18.7483 2.87516 18.6667C2.87637 17.6063 3.29747 16.5895 4.04607 15.8396C4.79466 15.0897 5.80964 14.6679 6.86831 14.6667H10.1446C10.0179 14.9791 9.96692 15.3173 9.99572 15.6532C10.0245 15.9893 10.1323 16.3136 10.3103 16.5999C10.4883 16.8861 10.7314 17.1261 11.0197 17.3003C11.308 17.4744 11.6334 17.5776 11.9692 17.6015C11.7666 17.9632 11.6746 18.3766 11.7045 18.7902C11.7345 19.2039 11.8851 19.5996 12.1377 19.9282C12.3903 20.2569 12.7337 20.5039 13.1253 20.6386C13.5169 20.7734 13.9393 20.7899 14.3402 20.6861C14.2786 20.9884 14.281 21.3003 14.3476 21.6015L12.8199 22.7786C11.6789 21.8505 10.7308 20.7073 10.0291 19.4135ZM11.2567 28.0574C11.175 28.0939 11.1014 28.1464 11.0404 28.212C10.9793 28.2775 10.9321 28.3546 10.9015 28.4389L8.79917 34.2305C8.63407 34.6874 8.33393 35.083 7.93873 35.3646L3.62538 38.4533C3.52976 38.5221 3.42392 38.5756 3.31174 38.6116C3.19802 38.648 3.07939 38.6665 2.96002 38.6666C2.80941 38.667 2.66024 38.6375 2.52111 38.5798C2.38198 38.522 2.25568 38.4372 2.14949 38.3302L1.45734 37.6369C1.38566 37.5649 1.34188 37.4695 1.33383 37.3681C1.32577 37.2668 1.35396 37.1657 1.41337 37.0831C1.47278 37.0006 1.55953 36.9419 1.65814 36.9175C1.75675 36.8931 1.86081 36.9046 1.95175 36.95L2.57734 37.2633C2.68229 37.3158 2.79926 37.3396 2.91637 37.3324C3.03348 37.325 3.14657 37.2868 3.2442 37.2216L7.23734 34.5549C7.37108 34.4656 7.46801 34.3309 7.51022 34.1756L9.4479 27.059L15.0202 22.7655C15.4115 23.1203 15.917 23.3221 16.4446 23.3343C16.9722 23.3464 17.4864 23.1679 17.8935 22.8315L18.7571 22.255C18.9726 22.6069 19.0523 23.0254 18.9811 23.432C18.9101 23.8385 18.6931 24.205 18.371 24.4625C17.5724 25.1024 16.695 25.637 15.7605 26.0531L11.2567 28.0574ZM31.251 38.1824C31.1572 38.2529 31.0423 38.2895 30.9252 38.2865C30.808 38.2834 30.6953 38.2409 30.6053 38.1656C30.5154 38.0904 30.4534 37.987 30.4293 37.872C30.4053 37.7571 30.4208 37.6375 30.4731 37.5324L30.7568 36.9649C30.807 36.8645 30.8311 36.7531 30.8268 36.641C30.8225 36.5287 30.79 36.4195 30.7324 36.3232L28.7358 32.9899C28.6766 32.8913 28.593 32.8096 28.493 32.753C28.393 32.6964 28.2801 32.6666 28.1651 32.6666H17.5168V26.6517C17.6156 26.5949 17.7144 26.5376 17.8119 26.4783C18.5281 26.603 19.2538 26.6658 19.9808 26.6659H20.2945C20.3143 26.6659 20.3343 26.6649 20.3541 26.6648L19.5281 30.527C19.5073 30.6243 19.5085 30.7249 19.5316 30.8215C19.5546 30.9182 19.5989 31.0085 19.6613 31.0858C19.7237 31.1631 19.8026 31.2255 19.8921 31.2683C19.9817 31.3111 20.0796 31.3334 20.1788 31.3334H28.1901C28.4735 31.3341 28.7519 31.408 28.9985 31.548C29.2451 31.6879 29.4514 31.8891 29.5978 32.1321L31.7358 35.7011C31.9757 36.1015 32.059 36.5768 31.9695 37.035C31.8799 37.4934 31.624 37.9021 31.2511 38.1824H31.251Z" fill="#222222"/>
<path d="M24.8379 2.66678H23.5068V4.00012H24.8379V2.66678Z" fill="#222222"/>
</g>
<defs>
<clipPath id="clip0">
<rect width="146" height="40" fill="white"/>
</clipPath>
</defs>
</svg>
